<svg width="1200" height="600" viewBox="0 0 1200 600" fill="none" xmlns="http://www.w3.org/2000/svg">
<rect x="0.5" y="0.5" width="1199" height="599" fill="white" stroke="white"/>
<rect width="147.196" height="28.0994" transform="matrix(0.352133 -0.93595 0.949635 0.313359 106.359 341.768)" fill="#2DB400"/>
<rect width="155.971" height="26.4962" transform="matrix(1 0 -0.00109894 0.999999 97.0291 239.007)" fill="#2DB400"/>
<rect width="155.971" height="26.4962" transform="matrix(1 0 -0.00109894 0.999999 97.0291 289.793)" fill="#2DB400"/>
<rect width="147.196" height="28.0994" transform="matrix(0.352138 -0.935948 0.949633 0.313363 163.165 351.195)" fill="#2DB400"/>
<path d="M299.2 341.44V231.68H338.56C364.48 231.68 378.08 242.4 378.08 264.32C378.08 279.52 370.56 288 358.56 292.48V293.28L385.76 341.44H359.68L337.92 298.24H321.92V341.44H299.2ZM321.76 283.36H335.84C349.28 283.36 354.56 277.44 354.56 265.44C354.56 253.6 349.12 248.48 335.68 248.48H321.76V283.36ZM423.863 341.44V298.72L388.663 231.68H412.983L436.503 278.08H436.983L460.183 231.68H481.783L446.743 298.72V341.44H423.863ZM538.193 343.36C509.233 343.36 493.872 329.92 493.872 302.72V231.68H516.753V301.44C516.753 320 524.113 326.24 538.993 326.24C553.393 326.24 559.953 320.16 559.953 301.28V231.68H580.753V302.24C580.753 330.08 567.153 343.36 538.193 343.36ZM602.481 341.44V231.68H627.921L670.321 304.64H670.801V231.68H690.801V341.44H668.401L622.961 262.72H622.481V341.44H602.481ZM713.743 341.44V231.68H736.623V341.44H713.743ZM801.7 341.44V231.68H824.42V324H869.54V341.44H801.7ZM930.098 343.2C900.658 343.2 879.858 325.28 879.858 288.48V284.8C879.858 248.48 901.458 229.92 930.898 229.92C960.338 229.92 981.138 247.52 981.138 284.64V288.16C981.138 324.48 959.538 343.2 930.098 343.2ZM930.578 325.92C948.338 325.92 957.298 312 957.298 290.24V284.8C957.298 260.64 949.618 247.2 930.098 247.04C912.658 247.04 903.858 260.96 903.858 282.72V288.32C903.858 312.8 911.858 325.92 930.578 325.92ZM1046.59 343.2C1013.63 343.2 992.826 327.68 992.826 288.8V285.28C992.826 243.52 1018.59 229.92 1047.39 229.92C1061.95 229.92 1072.03 232.96 1078.43 236.16V253.76C1071.87 251.36 1063.39 248 1049.31 248C1024.19 248 1016.67 263.84 1016.67 283.84V288.8C1016.67 311.04 1022.11 326.08 1046.11 326.08C1052.03 326.08 1057.95 324.8 1061.47 323.68V300.64H1042.43V284.64H1083.39V336.48C1075.07 339.68 1061.47 343.2 1046.59 343.2Z" fill="black"/>
</svg>
